<svg width="159" height="17" viewBox="0 0 159 17" fill="none" xmlns="http://www.w3.org/2000/svg">
<path d="M13.5439 13.0039C13.5439 13.248 13.4634 13.4507 13.3022 13.6118C13.1118 13.7778 12.9067 13.8608 12.687 13.8608H7.06201C6.96436 13.8608 6.89111 13.8315 6.84229 13.7729C6.78369 13.6948 6.75439 13.6289 6.75439 13.5752V3.48242C6.75439 3.41406 6.78369 3.34082 6.84229 3.2627C6.88623 3.19434 6.95215 3.16016 7.04004 3.16016H8.18262C8.27051 3.16016 8.33887 3.18701 8.3877 3.24072C8.44141 3.29443 8.46826 3.36279 8.46826 3.4458V11.8174C8.46826 11.8857 8.49512 11.9614 8.54883 12.0444C8.62207 12.1128 8.69775 12.147 8.77588 12.147H11.5298C11.5884 12.147 11.6616 12.1201 11.7495 12.0664C11.8032 11.9883 11.8301 11.9199 11.8301 11.8613V10.7773C11.8301 10.6992 11.8569 10.6382 11.9106 10.5942C11.9839 10.5259 12.0596 10.4917 12.1377 10.4917H13.2363C13.3193 10.4917 13.395 10.5259 13.4634 10.5942C13.5171 10.6479 13.5439 10.709 13.5439 10.7773V13.0039ZM27.3029 10.5796C27.3029 11.605 26.9978 12.4131 26.3874 13.0039C25.7722 13.5752 24.9421 13.8608 23.8972 13.8608C22.7009 13.8608 21.8391 13.5752 21.3117 13.0039C20.7795 12.4277 20.5134 11.6123 20.5134 10.5576V4.96924C20.5134 4.42725 20.6916 3.98535 21.048 3.64355C21.4143 3.32129 21.8488 3.16016 22.3518 3.16016H25.9772C26.2263 3.16016 26.4436 3.24072 26.6291 3.40186C26.7951 3.58252 26.8781 3.81445 26.8781 4.09766L26.6291 6.08984C26.6047 6.25586 26.5314 6.33887 26.4094 6.33887H25.4499C25.2595 6.33887 25.1643 6.23633 25.1643 6.03125V4.78613C25.1643 4.72754 25.1301 4.65918 25.0617 4.58105C25.008 4.52734 24.9323 4.50049 24.8347 4.50049H22.945C22.7448 4.50049 22.5739 4.56885 22.4323 4.70557C22.2956 4.83252 22.2272 5.00342 22.2272 5.21826V10.3086C22.2272 10.8945 22.3566 11.3511 22.6154 11.6782C22.8791 11.9907 23.3063 12.147 23.8972 12.147C24.4196 12.147 24.8347 11.9834 25.1423 11.6562C25.4401 11.3389 25.5891 10.9238 25.5891 10.4111C25.5891 10.2354 25.6916 10.1475 25.8967 10.1475H26.9807C27.1076 10.1475 27.1955 10.189 27.2443 10.272C27.2834 10.3599 27.3029 10.4624 27.3029 10.5796ZM35.2131 13.5532C35.2131 13.6313 35.1862 13.7046 35.1325 13.7729C35.0788 13.8315 35.0104 13.8608 34.9274 13.8608H28.7312C28.5261 13.8608 28.4235 13.7583 28.4235 13.5532V3.4458C28.4235 3.25537 28.5261 3.16016 28.7312 3.16016H34.4587C34.5563 3.16016 34.632 3.18701 34.6857 3.24072C34.7541 3.30908 34.7883 3.37744 34.7883 3.4458V4.21484C34.7883 4.26855 34.7614 4.33691 34.7077 4.41992C34.654 4.47363 34.5783 4.50049 34.4807 4.50049H30.445C30.2399 4.50049 30.1374 4.60303 30.1374 4.80811V6.62451C30.1374 6.68799 30.1643 6.76123 30.218 6.84424C30.2717 6.89795 30.3474 6.9248 30.445 6.9248H33.1989C33.2771 6.9248 33.3503 6.95898 33.4187 7.02734C33.4724 7.11035 33.4992 7.18604 33.4992 7.25439V7.98682C33.4992 8.19189 33.3991 8.29443 33.1989 8.29443H30.445C30.2399 8.29443 30.1374 8.38965 30.1374 8.58008V11.8174C30.1374 11.8857 30.1643 11.9614 30.218 12.0444C30.2912 12.1128 30.3669 12.147 30.445 12.147H34.9274C35.0104 12.147 35.0788 12.1738 35.1325 12.2275C35.1862 12.3008 35.2131 12.3765 35.2131 12.4546V13.5532ZM42.8303 13.5752C42.8303 13.6387 42.8034 13.7046 42.7497 13.7729C42.696 13.8315 42.6276 13.8608 42.5446 13.8608H41.5485C41.4606 13.8608 41.3923 13.8315 41.3435 13.7729C41.2897 13.7192 41.2629 13.646 41.2629 13.5532C41.2629 13.5093 41.2556 13.4751 41.2409 13.4507C41.2409 13.3823 41.2336 13.3408 41.2189 13.3262L37.9377 7.54004C37.8937 7.47168 37.84 7.4375 37.7766 7.4375C37.6691 7.4375 37.6154 7.47168 37.6154 7.54004V13.5752C37.6154 13.6533 37.5886 13.7192 37.5349 13.7729C37.4763 13.8315 37.4006 13.8608 37.3078 13.8608H36.3483C36.2507 13.8608 36.1774 13.8315 36.1286 13.7729C36.07 13.6948 36.0407 13.6289 36.0407 13.5752V3.48242C36.0407 3.41406 36.07 3.34082 36.1286 3.2627C36.1726 3.19434 36.2385 3.16016 36.3264 3.16016H37.3298C37.4128 3.16016 37.4812 3.18701 37.5349 3.24072C37.5886 3.29443 37.6154 3.36279 37.6154 3.4458C37.6154 3.48486 37.6228 3.52393 37.6374 3.56299C37.6374 3.6167 37.6423 3.6582 37.6521 3.6875L40.9333 9.47363C40.9772 9.54199 41.0383 9.57617 41.1164 9.57617C41.2141 9.57617 41.2629 9.54199 41.2629 9.47363V3.4458C41.2629 3.36279 41.2897 3.29443 41.3435 3.24072C41.3874 3.18701 41.4558 3.16016 41.5485 3.16016H42.5227C42.6252 3.16016 42.7009 3.19434 42.7497 3.2627C42.8034 3.33594 42.8303 3.40918 42.8303 3.48242V13.5752ZM50.5939 11.1655C50.5939 11.6001 50.5061 12.0151 50.3303 12.4106C50.1447 12.7573 49.8933 13.0552 49.5759 13.3042C49.2292 13.5435 48.863 13.7217 48.4772 13.8389C48.0476 13.9463 47.613 14 47.1735 14C46.6413 14 46.1774 13.9585 45.7819 13.8755C45.3913 13.8218 45.0446 13.6875 44.7419 13.4727C44.4489 13.2969 44.2194 13.0186 44.0534 12.6377C43.8874 12.2764 43.8044 11.8125 43.8044 11.2461C43.8044 11.207 43.8337 11.1338 43.8923 11.0264C43.9509 10.958 44.0168 10.9238 44.09 10.9238H45.174C45.257 10.9238 45.3254 10.9507 45.3791 11.0044C45.4084 11.0581 45.4353 11.1338 45.4597 11.2314C45.4792 11.4756 45.5402 11.6636 45.6428 11.7954C45.76 11.9565 45.8967 12.0737 46.0529 12.147C46.2238 12.2349 46.3996 12.2886 46.5803 12.3081C46.7023 12.3374 46.9001 12.3521 47.1735 12.3521C47.4714 12.3521 47.6813 12.3447 47.8034 12.3301C48.0378 12.2812 48.2136 12.2324 48.3308 12.1836C48.5163 12.0908 48.6457 11.9834 48.7189 11.8613C48.8264 11.71 48.8801 11.5269 48.8801 11.312C48.8801 10.9653 48.7238 10.6455 48.4113 10.3525C48.1086 10.0693 47.635 9.72266 46.9904 9.3125C46.4777 9.00488 46.1164 8.77295 45.9064 8.6167C45.6086 8.39209 45.3376 8.15527 45.0935 7.90625C44.8151 7.61816 44.6101 7.31299 44.4782 6.99072C44.3171 6.66357 44.2365 6.29004 44.2365 5.87012C44.2365 5.40137 44.3171 4.99365 44.4782 4.64697C44.654 4.30518 44.8859 4.01953 45.174 3.79004C45.4768 3.57031 45.8234 3.40674 46.2141 3.29932C46.5607 3.20654 46.9807 3.16016 47.4738 3.16016C47.9133 3.16016 48.3015 3.19922 48.6384 3.27734C49.029 3.37012 49.3415 3.50684 49.5759 3.6875C49.8493 3.86816 50.0666 4.11963 50.2277 4.44189C50.3791 4.79346 50.4548 5.18652 50.4548 5.62109C50.4548 5.69434 50.4255 5.77002 50.3669 5.84814C50.2985 5.9165 50.2253 5.95068 50.1472 5.95068H49.1877C49.1096 5.95068 49.0339 5.9165 48.9606 5.84814C48.9069 5.79443 48.8801 5.72607 48.8801 5.64307C48.8801 5.24268 48.7507 4.94971 48.4919 4.76416C48.2282 4.58838 47.9035 4.50049 47.5178 4.50049C47.1369 4.50049 46.7756 4.5957 46.4338 4.78613C46.1115 4.99121 45.9504 5.27686 45.9504 5.64307C45.9504 6.01904 46.1066 6.33887 46.4191 6.60254C46.717 6.89062 47.1906 7.2373 47.84 7.64258C48.0549 7.78906 48.2526 7.92334 48.4333 8.04541C48.614 8.1626 48.7775 8.27246 48.924 8.375C49.2316 8.59961 49.5026 8.83643 49.737 9.08545C50.0153 9.39307 50.2204 9.70068 50.3522 10.0083C50.5134 10.355 50.5939 10.7407 50.5939 11.1655ZM58.5041 13.5532C58.5041 13.6313 58.4772 13.7046 58.4235 13.7729C58.3698 13.8315 58.3015 13.8608 58.2185 13.8608H52.0222C51.8171 13.8608 51.7146 13.7583 51.7146 13.5532V3.4458C51.7146 3.25537 51.8171 3.16016 52.0222 3.16016H57.7497C57.8474 3.16016 57.923 3.18701 57.9768 3.24072C58.0451 3.30908 58.0793 3.37744 58.0793 3.4458V4.21484C58.0793 4.26855 58.0524 4.33691 57.9987 4.41992C57.945 4.47363 57.8693 4.50049 57.7717 4.50049H53.736C53.531 4.50049 53.4284 4.60303 53.4284 4.80811V6.62451C53.4284 6.68799 53.4553 6.76123 53.509 6.84424C53.5627 6.89795 53.6384 6.9248 53.736 6.9248H56.4899C56.5681 6.9248 56.6413 6.95898 56.7097 7.02734C56.7634 7.11035 56.7902 7.18604 56.7902 7.25439V7.98682C56.7902 8.19189 56.6901 8.29443 56.4899 8.29443H53.736C53.531 8.29443 53.4284 8.38965 53.4284 8.58008V11.8174C53.4284 11.8857 53.4553 11.9614 53.509 12.0444C53.5822 12.1128 53.6579 12.147 53.736 12.147H58.2185C58.3015 12.147 58.3698 12.1738 58.4235 12.2275C58.4772 12.3008 58.5041 12.3765 58.5041 12.4546V13.5532Z" fill="black"/>
<path d="M68.6836 6.60254C68.6836 6.37793 68.6567 6.11182 68.603 5.8042C68.5444 5.56494 68.4492 5.34766 68.3174 5.15234C68.1855 4.94238 68.0171 4.78613 67.812 4.68359C67.5972 4.56152 67.3384 4.50049 67.0356 4.50049H66.2227C66.1543 4.50049 66.0786 4.52734 65.9956 4.58105C65.9272 4.65918 65.8931 4.73486 65.8931 4.80811V8.47754C65.8931 8.53613 65.9199 8.61182 65.9736 8.70459C66.0322 8.7583 66.1079 8.78516 66.2007 8.78516H67.0356C67.2944 8.78516 67.5264 8.7168 67.7314 8.58008C67.9316 8.45312 68.1074 8.2749 68.2588 8.04541C68.3906 7.83545 68.498 7.59863 68.5811 7.33496C68.6494 7.08594 68.6836 6.8418 68.6836 6.60254ZM70.3975 6.39746C70.3975 7.62305 70.1387 8.55322 69.6211 9.18799C69.1133 9.82764 68.2588 10.1475 67.0576 10.1475H66.2007C65.9956 10.1475 65.8931 10.25 65.8931 10.4551V13.5752C65.8931 13.6533 65.8662 13.7192 65.8125 13.7729C65.7588 13.8315 65.6831 13.8608 65.5854 13.8608H64.4868C64.3892 13.8608 64.3159 13.8315 64.2671 13.7729C64.2085 13.6948 64.1792 13.6289 64.1792 13.5752V4.80811C64.1792 4.60303 64.0913 4.50049 63.9155 4.50049H63.8936C63.7031 4.50049 63.6079 4.40527 63.6079 4.21484V3.4458C63.6079 3.37744 63.6421 3.30908 63.7104 3.24072C63.7642 3.18701 63.8398 3.16016 63.9375 3.16016H67.6436C68.0928 3.16016 68.4736 3.24805 68.7861 3.42383C69.1279 3.60449 69.4209 3.84863 69.665 4.15625C69.9043 4.46875 70.0874 4.81543 70.2144 5.19629C70.3364 5.57715 70.3975 5.97754 70.3975 6.39746ZM83.6845 9.94238L82.8129 5.09375C82.7689 4.94238 82.6933 4.8667 82.5858 4.8667C82.4735 4.8667 82.3979 4.94238 82.3588 5.09375L81.4652 9.94238C81.4652 9.94238 81.4652 9.94727 81.4652 9.95703C81.4652 9.96191 81.4652 9.96436 81.4652 9.96436C81.4652 9.979 81.4652 9.99121 81.4652 10.001C81.4652 10.0059 81.4652 10.0083 81.4652 10.0083C81.4652 10.0864 81.4921 10.1523 81.5458 10.2061C81.5946 10.2646 81.663 10.2939 81.7509 10.2939H83.3842C83.5844 10.2939 83.6845 10.1768 83.6845 9.94238ZM85.9916 13.165C86.016 13.2578 86.0282 13.3335 86.0282 13.3921C86.0282 13.7046 85.8671 13.8608 85.5448 13.8608H84.7685C84.5146 13.8608 84.3778 13.7778 84.3583 13.6118L84.0727 12.0225C84.0141 11.8174 83.9066 11.7148 83.7504 11.7148H81.3627C81.2846 11.7148 81.2235 11.7368 81.1796 11.7808C81.1308 11.8442 81.0966 11.9248 81.0771 12.0225L80.7694 13.6118C80.7694 13.6851 80.7304 13.7461 80.6522 13.7949C80.5692 13.8389 80.4936 13.8608 80.4252 13.8608H79.6928C79.6098 13.8608 79.5219 13.8267 79.4291 13.7583C79.3314 13.6997 79.2826 13.5776 79.2826 13.3921C79.2826 13.3481 79.2973 13.2725 79.3266 13.165L81.099 3.74609C81.1332 3.56055 81.2284 3.41162 81.3847 3.29932C81.5263 3.20654 81.663 3.16016 81.7948 3.16016H83.5014C83.6576 3.16016 83.787 3.18701 83.8896 3.24072C83.997 3.30908 84.0727 3.42383 84.1166 3.58496L85.9916 13.165ZM93.7992 4.58105C93.7992 4.65918 93.7724 4.72021 93.7187 4.76416C93.6552 4.83252 93.5795 4.8667 93.4916 4.8667H91.4555C91.2504 4.8667 91.1479 4.96191 91.1479 5.15234V13.5532C91.1479 13.6558 91.121 13.729 91.0673 13.7729C91.0136 13.8315 90.9452 13.8608 90.8622 13.8608H89.7416C89.5414 13.8608 89.4413 13.7583 89.4413 13.5532V5.15234C89.4413 5.07422 89.4071 5.0083 89.3388 4.95459C89.2802 4.896 89.2045 4.8667 89.1117 4.8667H87.3173C87.1122 4.8667 87.0097 4.7666 87.0097 4.56641V3.4458C87.0097 3.25537 87.1122 3.16016 87.3173 3.16016H93.477C93.5746 3.16016 93.6479 3.18701 93.6967 3.24072C93.765 3.3042 93.7992 3.37256 93.7992 3.4458V4.58105ZM101.709 13.5532C101.709 13.6313 101.683 13.7046 101.629 13.7729C101.575 13.8315 101.507 13.8608 101.424 13.8608H95.2274C95.0224 13.8608 94.9198 13.7583 94.9198 13.5532V3.4458C94.9198 3.25537 95.0224 3.16016 95.2274 3.16016H100.955C101.053 3.16016 101.128 3.18701 101.182 3.24072C101.25 3.30908 101.285 3.37744 101.285 3.4458V4.21484C101.285 4.26855 101.258 4.33691 101.204 4.41992C101.15 4.47363 101.075 4.50049 100.977 4.50049H96.9413C96.7362 4.50049 96.6337 4.60303 96.6337 4.80811V6.62451C96.6337 6.68799 96.6605 6.76123 96.7143 6.84424C96.768 6.89795 96.8437 6.9248 96.9413 6.9248H99.6952C99.7733 6.9248 99.8466 6.95898 99.9149 7.02734C99.9687 7.11035 99.9955 7.18604 99.9955 7.25439V7.98682C99.9955 8.19189 99.8954 8.29443 99.6952 8.29443H96.9413C96.7362 8.29443 96.6337 8.38965 96.6337 8.58008V11.8174C96.6337 11.8857 96.6605 11.9614 96.7143 12.0444C96.7875 12.1128 96.8632 12.147 96.9413 12.147H101.424C101.507 12.147 101.575 12.1738 101.629 12.2275C101.683 12.3008 101.709 12.3765 101.709 12.4546V13.5532ZM111.524 10.5796C111.524 11.605 111.219 12.4131 110.608 13.0039C109.993 13.5752 109.163 13.8608 108.118 13.8608C106.922 13.8608 106.06 13.5752 105.533 13.0039C105 12.4277 104.734 11.6123 104.734 10.5576V4.96924C104.734 4.42725 104.912 3.98535 105.269 3.64355C105.635 3.32129 106.07 3.16016 106.573 3.16016H110.198C110.447 3.16016 110.664 3.24072 110.85 3.40186C111.016 3.58252 111.099 3.81445 111.099 4.09766L110.85 6.08984C110.826 6.25586 110.752 6.33887 110.63 6.33887H109.671C109.48 6.33887 109.385 6.23633 109.385 6.03125V4.78613C109.385 4.72754 109.351 4.65918 109.283 4.58105C109.229 4.52734 109.153 4.50049 109.056 4.50049H107.166C106.966 4.50049 106.795 4.56885 106.653 4.70557C106.517 4.83252 106.448 5.00342 106.448 5.21826V10.3086C106.448 10.8945 106.578 11.3511 106.836 11.6782C107.1 11.9907 107.527 12.147 108.118 12.147C108.641 12.147 109.056 11.9834 109.363 11.6562C109.661 11.3389 109.81 10.9238 109.81 10.4111C109.81 10.2354 109.912 10.1475 110.118 10.1475H111.202C111.329 10.1475 111.416 10.189 111.465 10.272C111.504 10.3599 111.524 10.4624 111.524 10.5796ZM119.287 13.5312C119.287 13.6045 119.261 13.6802 119.207 13.7583C119.139 13.8267 119.063 13.8608 118.98 13.8608H117.881C117.803 13.8608 117.727 13.8267 117.654 13.7583C117.6 13.6997 117.574 13.6313 117.574 13.5532V9.17334C117.574 9.09521 117.547 9.01953 117.493 8.94629C117.439 8.89258 117.371 8.86572 117.288 8.86572H114.519C114.314 8.86572 114.212 8.96094 114.212 9.15137V13.5752C114.212 13.6533 114.185 13.7192 114.131 13.7729C114.078 13.8315 114.002 13.8608 113.904 13.8608H112.806C112.708 13.8608 112.635 13.8315 112.586 13.7729C112.527 13.6948 112.498 13.6289 112.498 13.5752V3.48242C112.498 3.41406 112.527 3.34082 112.586 3.2627C112.63 3.19434 112.696 3.16016 112.784 3.16016H113.926C114.014 3.16016 114.082 3.18701 114.131 3.24072C114.185 3.29443 114.212 3.36279 114.212 3.4458V6.82959C114.212 6.89307 114.239 6.96631 114.292 7.04932C114.366 7.11768 114.441 7.15186 114.519 7.15186H117.273C117.332 7.15186 117.405 7.125 117.493 7.07129C117.547 7.00293 117.574 6.93457 117.574 6.86621V3.4458C117.574 3.36279 117.6 3.29443 117.654 3.24072C117.708 3.18701 117.784 3.16016 117.881 3.16016H118.98C119.082 3.16016 119.158 3.18701 119.207 3.24072C119.261 3.31396 119.287 3.38232 119.287 3.4458V13.5312ZM127.198 13.5532C127.198 13.6313 127.171 13.7046 127.117 13.7729C127.063 13.8315 126.995 13.8608 126.912 13.8608H120.716C120.511 13.8608 120.408 13.7583 120.408 13.5532V3.4458C120.408 3.25537 120.511 3.16016 120.716 3.16016H126.443C126.541 3.16016 126.617 3.18701 126.67 3.24072C126.739 3.30908 126.773 3.37744 126.773 3.4458V4.21484C126.773 4.26855 126.746 4.33691 126.692 4.41992C126.639 4.47363 126.563 4.50049 126.465 4.50049H122.43C122.225 4.50049 122.122 4.60303 122.122 4.80811V6.62451C122.122 6.68799 122.149 6.76123 122.203 6.84424C122.256 6.89795 122.332 6.9248 122.43 6.9248H125.183C125.262 6.9248 125.335 6.95898 125.403 7.02734C125.457 7.11035 125.484 7.18604 125.484 7.25439V7.98682C125.484 8.19189 125.384 8.29443 125.183 8.29443H122.43C122.225 8.29443 122.122 8.38965 122.122 8.58008V11.8174C122.122 11.8857 122.149 11.9614 122.203 12.0444C122.276 12.1128 122.351 12.147 122.43 12.147H126.912C126.995 12.147 127.063 12.1738 127.117 12.2275C127.171 12.3008 127.198 12.3765 127.198 12.4546V13.5532ZM134.815 10.5796C134.815 11.605 134.51 12.4131 133.899 13.0039C133.284 13.5752 132.454 13.8608 131.409 13.8608C130.213 13.8608 129.351 13.5752 128.824 13.0039C128.291 12.4277 128.025 11.6123 128.025 10.5576V4.96924C128.025 4.42725 128.204 3.98535 128.56 3.64355C128.926 3.32129 129.361 3.16016 129.864 3.16016H133.489C133.738 3.16016 133.955 3.24072 134.141 3.40186C134.307 3.58252 134.39 3.81445 134.39 4.09766L134.141 6.08984C134.117 6.25586 134.043 6.33887 133.921 6.33887H132.962C132.771 6.33887 132.676 6.23633 132.676 6.03125V4.78613C132.676 4.72754 132.642 4.65918 132.574 4.58105C132.52 4.52734 132.444 4.50049 132.347 4.50049H130.457C130.257 4.50049 130.086 4.56885 129.944 4.70557C129.808 4.83252 129.739 5.00342 129.739 5.21826V10.3086C129.739 10.8945 129.869 11.3511 130.127 11.6782C130.391 11.9907 130.818 12.147 131.409 12.147C131.932 12.147 132.347 11.9834 132.654 11.6562C132.952 11.3389 133.101 10.9238 133.101 10.4111C133.101 10.2354 133.204 10.1475 133.409 10.1475H134.493C134.62 10.1475 134.707 10.189 134.756 10.272C134.795 10.3599 134.815 10.4624 134.815 10.5796ZM142.439 13.2676C142.532 13.3945 142.579 13.5166 142.579 13.6338C142.579 13.7852 142.437 13.8608 142.154 13.8608H141.07C140.918 13.8608 140.784 13.7656 140.667 13.5752L138.404 9.72266C138.355 9.6543 138.294 9.62012 138.221 9.62012C138.167 9.62012 138.118 9.6543 138.074 9.72266L137.503 10.4917C137.41 10.6382 137.364 10.7896 137.364 10.9458V13.5752C137.364 13.6582 137.329 13.7241 137.261 13.7729C137.203 13.8315 137.134 13.8608 137.056 13.8608H136.097C135.999 13.8608 135.926 13.8315 135.877 13.7729C135.818 13.6948 135.789 13.6289 135.789 13.5752V3.48242C135.789 3.41406 135.818 3.34082 135.877 3.2627C135.921 3.19434 135.987 3.16016 136.075 3.16016H137.078C137.161 3.16016 137.229 3.18701 137.283 3.24072C137.337 3.29443 137.364 3.36279 137.364 3.4458V7.64258C137.364 7.7207 137.417 7.76709 137.525 7.78174C137.593 7.78174 137.669 7.73535 137.752 7.64258L141.011 3.40186C141.011 3.39209 141.014 3.38721 141.018 3.38721C141.028 3.38232 141.033 3.37256 141.033 3.35791C141.141 3.22607 141.255 3.16016 141.377 3.16016H142.154C142.437 3.16016 142.579 3.2334 142.579 3.37988C142.579 3.48242 142.532 3.59961 142.439 3.73145L139.444 7.78174C139.414 7.81104 139.4 7.84521 139.4 7.88428C139.4 7.88916 139.414 7.91602 139.444 7.96484C139.444 7.97949 139.444 7.98926 139.444 7.99414C139.444 7.99414 139.444 7.99902 139.444 8.00879L142.439 13.2676ZM150.489 13.5532C150.489 13.6313 150.462 13.7046 150.408 13.7729C150.354 13.8315 150.286 13.8608 150.203 13.8608H144.007C143.802 13.8608 143.699 13.7583 143.699 13.5532V3.4458C143.699 3.25537 143.802 3.16016 144.007 3.16016H149.734C149.832 3.16016 149.908 3.18701 149.961 3.24072C150.03 3.30908 150.064 3.37744 150.064 3.4458V4.21484C150.064 4.26855 150.037 4.33691 149.983 4.41992C149.93 4.47363 149.854 4.50049 149.756 4.50049H145.721C145.516 4.50049 145.413 4.60303 145.413 4.80811V6.62451C145.413 6.68799 145.44 6.76123 145.494 6.84424C145.547 6.89795 145.623 6.9248 145.721 6.9248H148.475C148.553 6.9248 148.626 6.95898 148.694 7.02734C148.748 7.11035 148.775 7.18604 148.775 7.25439V7.98682C148.775 8.19189 148.675 8.29443 148.475 8.29443H145.721C145.516 8.29443 145.413 8.38965 145.413 8.58008V11.8174C145.413 11.8857 145.44 11.9614 145.494 12.0444C145.567 12.1128 145.642 12.147 145.721 12.147H150.203C150.286 12.147 150.354 12.1738 150.408 12.2275C150.462 12.3008 150.489 12.3765 150.489 12.4546V13.5532ZM158.106 13.5532C158.081 13.7583 157.945 13.8608 157.696 13.8608H156.597C156.568 13.8608 156.514 13.8389 156.436 13.7949C156.353 13.7607 156.277 13.6802 156.209 13.5532L153.543 9.23193C153.489 9.10986 153.462 9.00732 153.462 8.92432V7.88428C153.462 7.65479 153.584 7.54004 153.829 7.54004H155.11C155.31 7.54004 155.481 7.45215 155.623 7.27637C155.755 7.09082 155.821 6.9126 155.821 6.7417V4.80811C155.821 4.73975 155.794 4.66406 155.74 4.58105C155.652 4.52734 155.584 4.50049 155.535 4.50049H153.338C153.26 4.50049 153.184 4.53467 153.111 4.60303C153.057 4.70068 153.03 4.77637 153.03 4.83008V13.5752C153.03 13.6533 153.003 13.7192 152.95 13.7729C152.896 13.8315 152.82 13.8608 152.723 13.8608H151.624C151.526 13.8608 151.453 13.8315 151.404 13.7729C151.346 13.6948 151.316 13.6289 151.316 13.5752V3.48242C151.316 3.41406 151.346 3.34082 151.404 3.2627C151.448 3.19434 151.514 3.16016 151.602 3.16016H156.802C157.08 3.16016 157.29 3.24072 157.432 3.40186C157.598 3.58252 157.681 3.81445 157.681 4.09766V6.7417C157.681 7.0249 157.552 7.29834 157.293 7.56201C157.034 7.77686 156.661 8.0332 156.172 8.33105C155.777 8.55566 155.533 8.70703 155.44 8.78516C155.381 8.83398 155.352 8.89502 155.352 8.96826C155.352 9.05615 155.393 9.15137 155.476 9.25391L157.981 13.2676C157.981 13.2676 157.981 13.2725 157.981 13.2822C157.986 13.292 158.001 13.2993 158.025 13.3042C158.079 13.4312 158.106 13.5142 158.106 13.5532Z" fill="black"/>
<path d="M0 4C0 2.34315 1.34315 1 3 1H5V16H3C1.34315 16 0 14.6569 0 13V4Z" fill="#003FBC"/>
<circle cx="17" cy="5" r="2" fill="#D5522E"/>
<circle cx="17" cy="5" r="0.5" fill="#703E30"/>
<circle cx="17" cy="11.5" r="2.5" fill="#B3CEE4"/>
<circle cx="17" cy="11.5" r="1.5" fill="#8AABC6"/>
<path d="M75.5 13H72.5V5.5" stroke="black" stroke-width="1.3" stroke-linecap="square" stroke-linejoin="round"/>
<circle cx="72.5" cy="4.5" r="1.1" fill="white" stroke="black" stroke-width="0.8"/>
<circle cx="77" cy="12.9502" r="1.1" fill="white" stroke="black" stroke-width="0.8"/>
</svg>
