<svg width="40" height="17" viewBox="0 0 40 17" fill="none" xmlns="http://www.w3.org/2000/svg">
<path d="M13.5439 13.0039C13.5439 13.248 13.4634 13.4507 13.3022 13.6118C13.1118 13.7778 12.9067 13.8608 12.687 13.8608H7.06201C6.96436 13.8608 6.89111 13.8315 6.84229 13.7729C6.78369 13.6948 6.75439 13.6289 6.75439 13.5752V3.48242C6.75439 3.41406 6.78369 3.34082 6.84229 3.2627C6.88623 3.19434 6.95215 3.16016 7.04004 3.16016H8.18262C8.27051 3.16016 8.33887 3.18701 8.3877 3.24072C8.44141 3.29443 8.46826 3.36279 8.46826 3.4458V11.8174C8.46826 11.8857 8.49512 11.9614 8.54883 12.0444C8.62207 12.1128 8.69775 12.147 8.77588 12.147H11.5298C11.5884 12.147 11.6616 12.1201 11.7495 12.0664C11.8032 11.9883 11.8301 11.9199 11.8301 11.8613V10.7773C11.8301 10.6992 11.8569 10.6382 11.9106 10.5942C11.9839 10.5259 12.0596 10.4917 12.1377 10.4917H13.2363C13.3193 10.4917 13.395 10.5259 13.4634 10.5942C13.5171 10.6479 13.5439 10.709 13.5439 10.7773V13.0039ZM25.5891 6.60254C25.5891 6.37793 25.5622 6.11182 25.5085 5.8042C25.4499 5.56494 25.3547 5.34766 25.2229 5.15234C25.091 4.94238 24.9226 4.78613 24.7175 4.68359C24.5026 4.56152 24.2438 4.50049 23.9411 4.50049H23.1281C23.0598 4.50049 22.9841 4.52734 22.9011 4.58105C22.8327 4.65918 22.7985 4.73486 22.7985 4.80811V8.47754C22.7985 8.53613 22.8254 8.61182 22.8791 8.70459C22.9377 8.7583 23.0134 8.78516 23.1062 8.78516H23.9411C24.1999 8.78516 24.4318 8.7168 24.6369 8.58008C24.8371 8.45312 25.0129 8.2749 25.1643 8.04541C25.2961 7.83545 25.4035 7.59863 25.4865 7.33496C25.5549 7.08594 25.5891 6.8418 25.5891 6.60254ZM27.3029 6.39746C27.3029 7.62305 27.0441 8.55322 26.5266 9.18799C26.0188 9.82764 25.1643 10.1475 23.9631 10.1475H23.1062C22.9011 10.1475 22.7985 10.25 22.7985 10.4551V13.5752C22.7985 13.6533 22.7717 13.7192 22.718 13.7729C22.6643 13.8315 22.5886 13.8608 22.4909 13.8608H21.3923C21.2946 13.8608 21.2214 13.8315 21.1726 13.7729C21.114 13.6948 21.0847 13.6289 21.0847 13.5752V4.80811C21.0847 4.60303 20.9968 4.50049 20.821 4.50049H20.799C20.6086 4.50049 20.5134 4.40527 20.5134 4.21484V3.4458C20.5134 3.37744 20.5476 3.30908 20.6159 3.24072C20.6696 3.18701 20.7453 3.16016 20.843 3.16016H24.549C24.9982 3.16016 25.3791 3.24805 25.6916 3.42383C26.0334 3.60449 26.3264 3.84863 26.5705 4.15625C26.8098 4.46875 26.9929 4.81543 27.1198 5.19629C27.2419 5.57715 27.3029 5.97754 27.3029 6.39746Z" fill="black"/>
<path d="M0 4C0 2.34315 1.34315 1 3 1H5V16H3C1.34315 16 0 14.6569 0 13V4Z" fill="#003FBC"/>
<path d="M36 15.6001C37.6569 15.6001 39 14.257 39 12.6001L39 4.4001C39 2.74324 37.6569 1.4001 36 1.4001" stroke="black" stroke-width="0.8"/>
<circle cx="17" cy="5" r="2" fill="#D5522E"/>
<circle cx="17" cy="5" r="0.75" fill="#703E30"/>
<circle cx="17" cy="11.5" r="2.5" fill="#B3CEE4"/>
<circle cx="17" cy="11.5" r="1.5" fill="#8AABC6"/>
<path d="M33.875 4.19958H30.5C29.9477 4.19958 29.5 4.64619 29.5 5.19848C29.5 6.78337 29.5 9.81578 29.5 11.0002C29.5 14 34.5 14 34.5 10.9999" stroke="black" stroke-width="1.7" stroke-linecap="square" stroke-linejoin="round"/>
<circle cx="34.5" cy="4.19971" r="1.1" fill="white" stroke="black" stroke-width="0.8"/>
<circle cx="34.5" cy="9.5" r="1.1" fill="white" stroke="black" stroke-width="0.8"/>
<line x1="5" y1="15.6" x2="36" y2="15.6" stroke="black" stroke-width="0.8"/>
<line x1="5" y1="1.3998" x2="36" y2="1.39981" stroke="black" stroke-width="0.8"/>
</svg>
